<svg xmlns="http://www.w3.org/2000/svg" viewBox="0 0 400 500" width="400" height="500"><rect width="400" height="500" fill="#fff"/><g fill="none" stroke="#1a1a1a" stroke-width="4.5" stroke-linecap="round" stroke-linejoin="round"><path d="M200 176 Q118 96 74 148 Q40 196 92 236 Q46 262 78 312 Q116 356 200 288"/><path d="M200 176 Q282 96 326 148 Q360 196 308 236 Q354 262 322 312 Q284 356 200 288"/><ellipse cx="200" cy="240" rx="16" ry="76"/><circle cx="200" cy="156" r="17"/><path d="M190 142 Q168 100 142 92"/><path d="M210 142 Q232 100 258 92"/><circle cx="142" cy="92" r="7"/><circle cx="258" cy="92" r="7"/><circle cx="128" cy="180" r="18"/><circle cx="272" cy="180" r="18"/><circle cx="132" cy="292" r="13"/><circle cx="268" cy="292" r="13"/></g></svg>
