<svg xmlns="http://www.w3.org/2000/svg" viewBox="0 0 400 500" width="400" height="500"><rect width="400" height="500" fill="#fff"/><g fill="none" stroke="#1a1a1a" stroke-width="4.5" stroke-linecap="round" stroke-linejoin="round"><circle cx="200" cy="184" r="86"/><path d="M136 128 L120 54 L188 100"/><path d="M264 128 L280 54 L212 100"/><circle cx="172" cy="176" r="11"/><circle cx="228" cy="176" r="11"/><path d="M200 204 L188 216 Q200 228 212 216 Z"/><path d="M200 228 Q200 244 178 244"/><path d="M200 228 Q200 244 222 244"/><path d="M120 196 L64 184"/><path d="M120 212 L66 220"/><path d="M280 196 L336 184"/><path d="M280 212 L334 220"/><path d="M138 262 Q120 340 132 420 L268 420 Q280 340 262 262"/><path d="M268 420 Q340 416 336 356 Q332 316 300 320"/><ellipse cx="166" cy="424" rx="26" ry="14"/><ellipse cx="234" cy="424" rx="26" ry="14"/></g></svg>
