<svg xmlns="http://www.w3.org/2000/svg" viewBox="0 0 400 500" width="400" height="500"><rect width="400" height="500" fill="#fff"/><g fill="none" stroke="#1a1a1a" stroke-width="4.5" stroke-linecap="round" stroke-linejoin="round"><path d="M62 152 Q74 116 112 126 Q150 142 164 202 Q180 252 238 264 Q302 252 344 294 Q384 332 388 372 Q368 354 340 354 Q302 358 294 386 L294 424 Q294 432 286 432 L262 432 Q254 432 254 424 L254 388 Q230 394 206 390 L206 424 Q206 432 198 432 L174 432 Q166 432 166 424 L166 384 Q136 372 120 340 Q102 300 104 252 Q106 202 82 180 Q58 174 62 152 Z"/><circle cx="92" cy="150" r="6"/><path d="M62 166 Q76 172 92 170"/><path d="M170 216 Q178 186 196 178"/><path d="M196 240 Q214 212 236 208"/><path d="M240 264 Q264 244 288 248"/><path d="M292 262 Q318 254 336 272"/></g></svg>
