<svg xmlns="http://www.w3.org/2000/svg" viewBox="0 0 400 500" width="400" height="500"><rect width="400" height="500" fill="#fff"/><g fill="none" stroke="#1a1a1a" stroke-width="4.5" stroke-linecap="round" stroke-linejoin="round"><path d="M200.0 134.0 Q184.7 99.7 200.0 62.0 Q215.3 99.7 200.0 134.0 Z"/><path d="M224.0 144.0 Q237.5 108.9 275.0 93.0 Q259.1 130.5 224.0 144.0 Z"/><path d="M234.0 168.0 Q268.3 152.7 306.0 168.0 Q268.3 183.3 234.0 168.0 Z"/><path d="M224.0 192.0 Q259.1 205.5 275.0 243.0 Q237.5 227.1 224.0 192.0 Z"/><path d="M200.0 202.0 Q215.3 236.3 200.0 274.0 Q184.7 236.3 200.0 202.0 Z"/><path d="M176.0 192.0 Q162.5 227.1 125.0 243.0 Q140.9 205.5 176.0 192.0 Z"/><path d="M166.0 168.0 Q131.7 183.3 94.0 168.0 Q131.7 152.7 166.0 168.0 Z"/><path d="M176.0 144.0 Q140.9 130.5 125.0 93.0 Q162.5 108.9 176.0 144.0 Z"/><circle cx="200" cy="168" r="30"/><circle cx="200" cy="168" r="14"/><path d="M200 198 L200 356"/><path d="M200 256 Q140 232 112 264 Q150 300 200 278 Z"/><path d="M200 296 Q260 272 288 304 Q250 340 200 318 Z"/><path d="M138 356 L262 356 L246 452 Q200 462 154 452 Z"/><path d="M132 356 L268 356"/></g></svg>
