<svg xmlns="http://www.w3.org/2000/svg" viewBox="0 0 400 500" width="400" height="500"><rect width="400" height="500" fill="#fff"/><g fill="none" stroke="#1a1a1a" stroke-width="4.5" stroke-linecap="round" stroke-linejoin="round"><circle cx="322" cy="92" r="40"/><path d="M322.0 42.0 Q316.0 32.3 322.0 22.0 Q328.0 32.3 322.0 42.0 Z"/><path d="M357.4 56.6 Q360.0 45.5 371.5 42.5 Q368.5 54.0 357.4 56.6 Z"/><path d="M372.0 92.0 Q381.7 86.0 392.0 92.0 Q381.7 98.0 372.0 92.0 Z"/><path d="M357.4 127.4 Q368.5 130.0 371.5 141.5 Q360.0 138.5 357.4 127.4 Z"/><path d="M322.0 142.0 Q328.0 151.7 322.0 162.0 Q316.0 151.7 322.0 142.0 Z"/><path d="M286.6 127.4 Q284.0 138.5 272.5 141.5 Q275.5 130.0 286.6 127.4 Z"/><path d="M272.0 92.0 Q262.3 98.0 252.0 92.0 Q262.3 86.0 272.0 92.0 Z"/><path d="M286.6 56.6 Q275.5 54.0 272.5 42.5 Q284.0 45.5 286.6 56.6 Z"/><path d="M78 232 L200 132 L322 232"/><path d="M104 220 L104 396 L296 396 L296 220"/><path d="M168 396 L168 300 L232 300 L232 396"/><circle cx="220" cy="348" r="6"/><rect x="126" y="252" width="52" height="44" rx="4"/><path d="M152 252 L152 296"/><path d="M126 274 L178 274"/><rect x="222" y="252" width="52" height="44" rx="4"/><path d="M248 252 L248 296"/><path d="M222 274 L274 274"/><path d="M252 176 L252 120 L282 120 L282 202"/><path d="M60 396 L340 396"/><path d="M170 396 Q150 440 120 462"/><path d="M230 396 Q250 440 280 462"/></g></svg>
