<svg xmlns="http://www.w3.org/2000/svg" viewBox="0 0 400 500" width="400" height="500"><rect width="400" height="500" fill="#fff"/><g fill="none" stroke="#1a1a1a" stroke-width="4.5" stroke-linecap="round" stroke-linejoin="round"><circle cx="200" cy="250" r="176"/><path d="M200.0 132.0 Q181.2 106.2 200.0 78.0 Q218.8 106.2 200.0 132.0 Z"/><path d="M259.0 147.8 Q255.6 116.1 286.0 101.0 Q288.2 134.9 259.0 147.8 Z"/><path d="M302.2 191.0 Q315.1 161.8 349.0 164.0 Q333.9 194.4 302.2 191.0 Z"/><path d="M318.0 250.0 Q343.8 231.2 372.0 250.0 Q343.8 268.8 318.0 250.0 Z"/><path d="M302.2 309.0 Q333.9 305.6 349.0 336.0 Q315.1 338.2 302.2 309.0 Z"/><path d="M259.0 352.2 Q288.2 365.1 286.0 399.0 Q255.6 383.9 259.0 352.2 Z"/><path d="M200.0 368.0 Q218.8 393.8 200.0 422.0 Q181.2 393.8 200.0 368.0 Z"/><path d="M141.0 352.2 Q144.4 383.9 114.0 399.0 Q111.8 365.1 141.0 352.2 Z"/><path d="M97.8 309.0 Q84.9 338.2 51.0 336.0 Q66.1 305.6 97.8 309.0 Z"/><path d="M82.0 250.0 Q56.2 268.8 28.0 250.0 Q56.2 231.2 82.0 250.0 Z"/><path d="M97.8 191.0 Q66.1 194.4 51.0 164.0 Q84.9 161.8 97.8 191.0 Z"/><path d="M141.0 147.8 Q111.8 134.9 114.0 101.0 Q144.4 116.1 141.0 147.8 Z"/><path d="M200.0 184.0 Q184.8 161.3 200.0 136.0 Q215.2 161.3 200.0 184.0 Z"/><path d="M233.0 192.8 Q231.2 165.6 257.0 151.3 Q257.5 180.8 233.0 192.8 Z"/><path d="M257.2 217.0 Q269.2 192.5 298.7 193.0 Q284.4 218.8 257.2 217.0 Z"/><path d="M266.0 250.0 Q288.7 234.8 314.0 250.0 Q288.7 265.2 266.0 250.0 Z"/><path d="M257.2 283.0 Q284.4 281.2 298.7 307.0 Q269.2 307.5 257.2 283.0 Z"/><path d="M233.0 307.2 Q257.5 319.2 257.0 348.7 Q231.2 334.4 233.0 307.2 Z"/><path d="M200.0 316.0 Q215.2 338.7 200.0 364.0 Q184.8 338.7 200.0 316.0 Z"/><path d="M167.0 307.2 Q168.8 334.4 143.0 348.7 Q142.5 319.2 167.0 307.2 Z"/><path d="M142.8 283.0 Q130.8 307.5 101.3 307.0 Q115.6 281.2 142.8 283.0 Z"/><path d="M134.0 250.0 Q111.3 265.2 86.0 250.0 Q111.3 234.8 134.0 250.0 Z"/><path d="M142.8 217.0 Q115.6 218.8 101.3 193.0 Q130.8 192.5 142.8 217.0 Z"/><path d="M167.0 192.8 Q142.5 180.8 143.0 151.3 Q168.8 165.6 167.0 192.8 Z"/><path d="M200.0 224.0 Q188.7 207.5 200.0 188.0 Q211.3 207.5 200.0 224.0 Z"/><path d="M218.4 231.6 Q222.1 211.9 243.8 206.2 Q238.1 227.9 218.4 231.6 Z"/><path d="M226.0 250.0 Q242.5 238.7 262.0 250.0 Q242.5 261.3 226.0 250.0 Z"/><path d="M218.4 268.4 Q238.1 272.1 243.8 293.8 Q222.1 288.1 218.4 268.4 Z"/><path d="M200.0 276.0 Q211.3 292.5 200.0 312.0 Q188.7 292.5 200.0 276.0 Z"/><path d="M181.6 268.4 Q177.9 288.1 156.2 293.8 Q161.9 272.1 181.6 268.4 Z"/><path d="M174.0 250.0 Q157.5 261.3 138.0 250.0 Q157.5 238.7 174.0 250.0 Z"/><path d="M181.6 231.6 Q161.9 227.9 156.2 206.2 Q177.9 211.9 181.6 231.6 Z"/><circle cx="200" cy="250" r="22"/><circle cx="200" cy="250" r="10"/></g></svg>
